
        <svg xmlns="http://www.w3.org/2000/svg" xmlns:xlink="http://www.w3.org/1999/xlink" version="1.1" width="3162.2020152371597" height="641.4352420742199" viewBox="0 0 3162.2020152371597 641.4352420742199">
			
			<g transform="scale(8.110100761857952) translate(10, 10)">
				<defs id="SvgjsDefs7571"/><g id="SvgjsG7572" featureKey="T6b0uQ-0" transform="matrix(1.2310606060606062,0,0,1.2310606060606062,0,0)" fill="#fff"><g xmlns="http://www.w3.org/2000/svg"><path d="M36,10.5L23.7,22.8c-0.4,0.4-0.4,1.1,0,1.5c0.4,0.4,1.1,0.4,1.5,0L37.5,12l3.7,0.5L48,5.7L43,5l-0.7-5l-6.9,6.9L36,10.5z"/><path d="M42,14.5c1.5,2.8,2.4,6,2.4,9.5c0,11.2-9.1,20.3-20.3,20.3C12.8,44.3,3.7,35.2,3.7,24C3.7,12.8,12.8,3.7,24,3.7   c3.4,0,6.6,0.8,9.5,2.3l2.7-2.7C32.6,1.2,28.4,0,24,0C10.8,0,0,10.8,0,24c0,13.2,10.8,24,24,24c13.2,0,24-10.8,24-24   c0-4.4-1.2-8.6-3.3-12.2L42,14.5z"/><path d="M33.4,10.3c-2.7-1.9-5.9-2.9-9.4-2.9C14.8,7.4,7.4,14.8,7.4,24c0,9.2,7.4,16.6,16.6,16.6S40.6,33.2,40.6,24   c0-3.5-1.1-6.7-2.9-9.4L35,17.3c1.2,2,1.9,4.3,1.9,6.7c0,7.1-5.8,12.9-12.9,12.9c-7.1,0-12.9-5.8-12.9-12.9   c0-7.1,5.8-12.9,12.9-12.9c2.5,0,4.8,0.7,6.7,1.9L33.4,10.3z"/><path d="M24,18.5c0.4,0,0.8,0,1.1,0.1l2.9-2.9c-1.2-0.6-2.6-0.9-4-0.9c-5.1,0-9.2,4.1-9.2,9.2s4.1,9.2,9.2,9.2s9.2-4.1,9.2-9.2   c0-1.4-0.3-2.8-0.9-4l-2.9,2.9c0,0,0,0,0,0c0.1,0.4,0.1,0.7,0.1,1.1c0,3.1-2.5,5.5-5.5,5.5c-3.1,0-5.5-2.5-5.5-5.5   C18.5,20.9,20.9,18.5,24,18.5z"/></g></g><g id="SvgjsG7573" featureKey="i9e7OP-0" transform="matrix(1.9006212958923272,0,0,1.9006212958923272,77.59354078934322,-2.134660451472236)" fill="#fff"><path d="M17.3 5.66 c-0.37334 0 -0.56 0.18666 -0.56 0.56 l0 5.44 l-14.88 0 l0 -5.44 c0 -0.37334 -0.18666 -0.56 -0.56 -0.56 s-0.56 0.18666 -0.56 0.56 l0 12 c0 0.37334 0.18666 0.56 0.56 0.56 s0.56 -0.18666 0.56 -0.56 l0 -5.44 l14.88 0 l0 5.44 c0 0.37334 0.18666 0.56 0.56 0.56 s0.56 -0.18666 0.56 -0.56 l0 -12 c0 -0.37334 -0.18666 -0.56 -0.56 -0.56 z M27.900000000000002 5.220000000000001 c-2.4266 0 -4.5066 0.66 -6.24 1.98 c-1.7733 1.3467 -2.66 2.9866 -2.66 4.92 s0.88666 3.5734 2.66 4.92 c1.72 1.3067 3.8 1.96 6.24 1.96 s4.5134 -0.65334 6.22 -1.96 c1.7733 -1.36 2.66 -3 2.66 -4.92 s-0.88666 -3.56 -2.66 -4.92 c-1.7333 -1.32 -3.8066 -1.98 -6.22 -1.98 z M35.68 12.120000000000001 c0 1.5867 -0.76 2.9434 -2.28 4.07 s-3.3534 1.69 -5.5 1.69 s-3.98 -0.56334 -5.5 -1.69 s-2.28 -2.4834 -2.28 -4.07 c0 -1.6 0.76 -2.9634 2.28 -4.09 s3.3534 -1.69 5.5 -1.69 s3.98 0.56334 5.5 1.69 s2.28 2.49 2.28 4.09 z M46.32 17.1 l-8.56 -12.82 l0 13.84 c0 0.36 0.18666 0.54 0.56 0.54 c0.36 0 0.54 -0.18 0.54 -0.54 l0 -10.18 l7.46 11.18 l7.44 -11.18 l0 10.18 c0 0.36 0.18666 0.54 0.56 0.54 c0.36 0 0.54 -0.18 0.54 -0.54 l0 -13.84 z M72.7 12.559999999999999 c0.37334 0 0.56 -0.18666 0.56 -0.56 s-0.18666 -0.56 -0.56 -0.56 l-15.44 0 l0 -4.88 l15.44 0 c0.37334 0 0.56 -0.18666 0.56 -0.56 s-0.18666 -0.56 -0.56 -0.56 l-16.56 0 l0 13.12 l16.56 0 c0.37334 0 0.56 -0.18666 0.56 -0.56 s-0.18666 -0.56 -0.56 -0.56 l-15.44 0 l0 -4.88 l15.44 0 z M97.60000000000001 5.5600000000000005 c-0.25334 0 -0.42666 0.10666 -0.52 0.32 l-4.86 10.92 l-5.96 -11.94 l-5.98 11.94 l-4.86 -10.92 c-0.09334 -0.21334 -0.26 -0.32 -0.5 -0.32 c-0.36 0 -0.54 0.18 -0.54 0.54 c0 0.08 0.01334 0.16 0.04 0.24 l5.8 13.08 l6.04 -12.06 l6.02 12.06 l5.82 -13.08 c0.02666 -0.06666 0.04 -0.14 0.04 -0.22 c0 -0.37334 -0.18 -0.56 -0.54 -0.56 z M107.86000000000001 5.220000000000001 c-2.4266 0 -4.5066 0.66 -6.24 1.98 c-1.7733 1.3467 -2.66 2.9866 -2.66 4.92 s0.88666 3.5734 2.66 4.92 c1.72 1.3067 3.8 1.96 6.24 1.96 s4.5134 -0.65334 6.22 -1.96 c1.7733 -1.36 2.66 -3 2.66 -4.92 s-0.88666 -3.56 -2.66 -4.92 c-1.7333 -1.32 -3.8066 -1.98 -6.22 -1.98 z M115.64 12.120000000000001 c0 1.5867 -0.76 2.9434 -2.28 4.07 s-3.3534 1.69 -5.5 1.69 s-3.98 -0.56334 -5.5 -1.69 s-2.28 -2.4834 -2.28 -4.07 c0 -1.6 0.76 -2.9634 2.28 -4.09 s3.3534 -1.69 5.5 -1.69 s3.98 0.56334 5.5 1.69 s2.28 2.49 2.28 4.09 z M134.88 17.54 l-4.48 -2.98 l0.16 0 c1.2667 0 2.3434 -0.44666 3.23 -1.34 s1.33 -1.9667 1.33 -3.22 c0 -1.2667 -0.44334 -2.3434 -1.33 -3.23 s-1.9633 -1.33 -3.23 -1.33 l-12.56 0 l0 12.56 c0 0.37334 0.18666 0.56 0.56 0.56 s0.56 -0.18666 0.56 -0.56 l0 -3.44 l9.28 0 l5.86 3.9 c0.09334 0.06666 0.19334 0.1 0.3 0.1 c0.2 0 0.35334 -0.08666 0.46 -0.26 c0.06666 -0.09334 0.1 -0.19334 0.1 -0.3 c0 -0.2 -0.08 -0.35334 -0.24 -0.46 z M119.12 6.5600000000000005 l11.44 0 c0.94666 0 1.7567 0.33666 2.43 1.01 s1.01 1.4833 1.01 2.43 s-0.33666 1.7567 -1.01 2.43 s-1.4833 1.01 -2.43 1.01 l-11.44 0 l0 -6.88 z M153.64000000000001 17.72 l-7.46 -7.46 l7.32 -3.66 c0.2 -0.09334 0.3 -0.25334 0.3 -0.48 c0 -0.21334 -0.08666 -0.37334 -0.26 -0.48 s-0.35334 -0.11332 -0.54 -0.01998 l-15.2 7.6 l0 -7.1 c0 -0.37334 -0.18666 -0.56 -0.56 -0.56 s-0.56 0.18666 -0.56 0.56 l0 12 c0 0.36 0.18666 0.54 0.56 0.54 s0.56 -0.18 0.56 -0.54 l0 -3.66 l7.34 -3.68 l7.7 7.72 c0.10666 0.10666 0.24 0.16 0.4 0.16 c0.37334 0 0.56 -0.18666 0.56 -0.56 c0 -0.14666 -0.05334 -0.27332 -0.16 -0.37998 z"/></g><g id="SvgjsG7574" featureKey="9oQUJT-0" transform="matrix(0.6096301690812176,0,0,0.6096301690812176,155.7805339661561,42.39078245773257)" fill="#fff"><path d="M23.58 5.5600000000000005 c-0.25334 0 -0.42666 0.10666 -0.52 0.32 l-4.86 10.92 l-5.96 -11.94 l-5.98 11.94 l-4.86 -10.92 c-0.09334 -0.21334 -0.26 -0.32 -0.5 -0.32 c-0.36 0 -0.54 0.18 -0.54 0.54 c0 0.08 0.01334 0.16 0.04 0.24 l5.8 13.08 l6.04 -12.06 l6.02 12.06 l5.82 -13.08 c0.02666 -0.06666 0.04 -0.14 0.04 -0.22 c0 -0.37334 -0.18 -0.56 -0.54 -0.56 z M38.845 5.220000000000001 c-2.4266 0 -4.5066 0.66 -6.24 1.98 c-1.7733 1.3467 -2.66 2.9866 -2.66 4.92 s0.88666 3.5734 2.66 4.92 c1.72 1.3067 3.8 1.96 6.24 1.96 s4.5134 -0.65334 6.22 -1.96 c1.7733 -1.36 2.66 -3 2.66 -4.92 s-0.88666 -3.56 -2.66 -4.92 c-1.7333 -1.32 -3.8066 -1.98 -6.22 -1.98 z M46.625 12.120000000000001 c0 1.5867 -0.76 2.9434 -2.28 4.07 s-3.3534 1.69 -5.5 1.69 s-3.98 -0.56334 -5.5 -1.69 s-2.28 -2.4834 -2.28 -4.07 c0 -1.6 0.76 -2.9634 2.28 -4.09 s3.3534 -1.69 5.5 -1.69 s3.98 0.56334 5.5 1.69 s2.28 2.49 2.28 4.09 z M70.87 17.54 l-4.48 -2.98 l0.16 0 c1.2667 0 2.3434 -0.44666 3.23 -1.34 s1.33 -1.9667 1.33 -3.22 c0 -1.2667 -0.44334 -2.3434 -1.33 -3.23 s-1.9633 -1.33 -3.23 -1.33 l-12.56 0 l0 12.56 c0 0.37334 0.18666 0.56 0.56 0.56 s0.56 -0.18666 0.56 -0.56 l0 -3.44 l9.28 0 l5.86 3.9 c0.09334 0.06666 0.19334 0.1 0.3 0.1 c0.2 0 0.35334 -0.08666 0.46 -0.26 c0.06666 -0.09334 0.1 -0.19334 0.1 -0.3 c0 -0.2 -0.08 -0.35334 -0.24 -0.46 z M55.11 6.5600000000000005 l11.44 0 c0.94666 0 1.7567 0.33666 2.43 1.01 s1.01 1.4833 1.01 2.43 s-0.33666 1.7567 -1.01 2.43 s-1.4833 1.01 -2.43 1.01 l-11.44 0 l0 -6.88 z M94.63500000000002 17.72 l-7.46 -7.46 l7.32 -3.66 c0.2 -0.09334 0.3 -0.25334 0.3 -0.48 c0 -0.21334 -0.08666 -0.37334 -0.26 -0.48 s-0.35334 -0.11332 -0.54 -0.01998 l-15.2 7.6 l0 -7.1 c0 -0.37334 -0.18666 -0.56 -0.56 -0.56 s-0.56 0.18666 -0.56 0.56 l0 12 c0 0.36 0.18666 0.54 0.56 0.54 s0.56 -0.18 0.56 -0.54 l0 -3.66 l7.34 -3.68 l7.7 7.72 c0.10666 0.10666 0.24 0.16 0.4 0.16 c0.37334 0 0.56 -0.18666 0.56 -0.56 c0 -0.14666 -0.05334 -0.27332 -0.16 -0.37998 z M111.72500000000001 14 c0 1.3733 0.82666 2.53 2.48 3.47 s3.68 1.41 6.08 1.41 c2.3866 0 4.3334 -0.26 5.84 -0.78 c1.8133 -0.62666 2.72 -1.5467 2.72 -2.76 c0 -1.2667 -0.77334 -2.18 -2.32 -2.74 c-0.88 -0.32 -2.5934 -0.65334 -5.14 -1 l-1.98 -0.28 c-2.4134 -0.34666 -4.0134 -0.65332 -4.8 -0.91998 c-1.1733 -0.4 -1.76 -0.98 -1.76 -1.74 c0 -0.72 0.69334 -1.3067 2.08 -1.76 s3.1734 -0.68 5.36 -0.68 c2.0134 0 3.7566 0.37334 5.23 1.12 s2.21 1.6333 2.21 2.66 l0 0 c0 0.37334 0.18666 0.56 0.56 0.56 s0.56 -0.18666 0.56 -0.56 l0 0 c0 -1.3733 -0.82666 -2.53 -2.48 -3.47 s-3.68 -1.41 -6.08 -1.41 c-2.3866 0 -4.3334 0.26 -5.84 0.78 c-1.8133 0.62666 -2.72 1.5467 -2.72 2.76 c0 1.2667 0.80666 2.1866 2.42 2.76 c0.77334 0.26666 2.48 0.6 5.12 1 l0.94 0.14 l1.02 0.14 c2.44 0.33334 4.06 0.64 4.86 0.92 c1.0933 0.37334 1.64 0.94668 1.64 1.72 c0 0.72 -0.69334 1.3067 -2.08 1.76 s-3.1734 0.68 -5.36 0.68 c-2.0134 0 -3.7566 -0.37334 -5.23 -1.12 s-2.21 -1.6333 -2.21 -2.66 l0 0 c0 -0.37334 -0.18666 -0.56 -0.56 -0.56 s-0.56 0.18666 -0.56 0.56 z M143.75 17.1 l-8.56 -12.82 l0 13.84 c0 0.36 0.18666 0.54 0.56 0.54 c0.36 0 0.54 -0.18 0.54 -0.54 l0 -10.18 l7.46 11.18 l7.44 -11.18 l0 10.18 c0 0.36 0.18666 0.54 0.56 0.54 c0.36 0 0.54 -0.18 0.54 -0.54 l0 -13.84 z M179.79500000000002 17.64 l-10.76 -12.5 l-10.42 12.5 c-0.08 0.09334 -0.12 0.20668 -0.12 0.34002 c0 0.38666 0.19334 0.58 0.58 0.58 c0.16 0 0.29334 -0.06666 0.4 -0.2 l0 0 l3.16 -3.8 l13.04 0 l3.28 3.8 c0.12 0.13334 0.26666 0.2 0.44 0.2 c0.36 0 0.54 -0.18 0.54 -0.54 c0 -0.14666 -0.04666 -0.27332 -0.14 -0.37998 z M163.57500000000002 13.440000000000001 l5.48 -6.58 l5.68 6.58 l-11.16 0 z M203.4 17.54 l-4.48 -2.98 l0.16 0 c1.2667 0 2.3434 -0.44666 3.23 -1.34 s1.33 -1.9667 1.33 -3.22 c0 -1.2667 -0.44334 -2.3434 -1.33 -3.23 s-1.9633 -1.33 -3.23 -1.33 l-12.56 0 l0 12.56 c0 0.37334 0.18666 0.56 0.56 0.56 s0.56 -0.18666 0.56 -0.56 l0 -3.44 l9.28 0 l5.86 3.9 c0.09334 0.06666 0.19334 0.1 0.3 0.1 c0.2 0 0.35334 -0.08666 0.46 -0.26 c0.06666 -0.09334 0.1 -0.19334 0.1 -0.3 c0 -0.2 -0.08 -0.35334 -0.24 -0.46 z M187.64000000000001 6.5600000000000005 l11.44 0 c0.94666 0 1.7567 0.33666 2.43 1.01 s1.01 1.4833 1.01 2.43 s-0.33666 1.7567 -1.01 2.43 s-1.4833 1.01 -2.43 1.01 l-11.44 0 l0 -6.88 z M226.465 5.4399999999999995 l-16 0 c-0.37334 0 -0.56 0.18666 -0.56 0.56 s0.18666 0.56 0.56 0.56 l7.44 0 l0 11.44 c0 0.37334 0.18666 0.56 0.56 0.56 s0.56 -0.18666 0.56 -0.56 l0 -11.44 l7.44 0 c0.37334 0 0.56 -0.18666 0.56 -0.56 s-0.18666 -0.56 -0.56 -0.56 z"/></g>
			</g>
		</svg>
	