
        <svg xmlns="http://www.w3.org/2000/svg" xmlns:xlink="http://www.w3.org/1999/xlink" version="1.1" width="3233.9181286549706" height="3159.018750927551" viewBox="0 0 3233.9181286549706 3159.018750927551">
			
			<g transform="scale(11.695906432748538) translate(10, 10)">
				<defs id="SvgjsDefs7092"/><g id="SvgjsG7093" featureKey="rootContainer" transform="matrix(2.4519225804343687,0,0,2.4519225804343687,0.028912553646405367,0)" fill="#fff"><path xmlns="http://www.w3.org/2000/svg" d="M50.8 102h5.8l1.8-.2 1.7-.3h1.7l1.9-.3 1.8-.4.9-.2.9-.3 1.7-.6 2-.8a54 54 0 0 0 15.3-9.4l1.4-1.2.7-.5.6-.4 1-.5.8-.5 1.5-1.2 1.5-1.5.8-1 .9-1.1a50.9 50.9 0 0 0 3.9-5.8 34.8 34.8 0 0 0 1.6-3.1l.2-.4.2-.4.3-.8.3-.9.2-.4v-.4l.4-1.2.2-.6v-.3h.1v-.2l.7-2.5c.2-.9.4-1.7.5-2.6a25.4 25.4 0 0 0 .2-2.6v-3.1c0-.3 0-1 .1-1.5v-2.1a21.3 21.3 0 0 0 .2-2.6v-2.6c0-.9-.1-1.1-.1-1.6l-.2-1.5c-.1-1-.4-2-.5-3s-.2-1-.3-1.4l-.3-1.4-.3-1.4v-1.7l-.4-1.4-.2-.7-.2-.7-.4-1.4-.5-1.4-.4-1-.5-1-1-2.1a40.7 40.7 0 0 1-1.8-4.1 3.6 3.6 0 0 0-.8-1.2l-.7-.6-.2-.3-.3-.5a25.7 25.7 0 0 0-1.6-2.3l-.8-1.1-.9-1.1-.4-.5-.2-.3-.2-.2h-.1l-.9-1-.5-.5-.5-.5-.9-1.1-1.1-1a47.9 47.9 0 0 0-3.8-3l-.1-.5-1.3-.9A29 29 0 0 0 72 .4h-3.1a.8.8 0 0 0-.6 1.2A3.9 3.9 0 0 0 69.9 3l-.6.3-.4-.2a.9.9 0 0 0 0-.3c-.1-.5-.2-.9-1.3-1.3L65.3.7l-.6-.2h-.6L62.8 0l-1.3 1.2A48.5 48.5 0 0 0 39 2.4 31.1 31.1 0 0 0 31.4 4h-.5l-.5.2-1 .4-1 .5-.9.6-1.8 1.5-.8.6-.7.7c-1 .9-1.9 1.9-2.8 2.8L20 12.8l-1.4 1.5-.5.5-.5.5-1.1 1a55.1 55.1 0 0 0-7 7l.2-.5.6-1.1.6-1.1.6-1.1.6-1.2.6-1.2 1.2-2.4.4-.8.3-.6a1 1 0 0 0 0-.8 3.7 3.7 0 0 1-.2-1.2 17.1 17.1 0 0 0-2.1 1.1l-1.5 1.1-.8.6-.7.7-.8 1-.5 1-.5 1-.2.5-.3.5-.3.6-.4.8-.4.8-.7 1.7-.5 1.3-.5 1.3v.7l-.2.6-.3 1.3v.2h-.4v.3l-.2.7-.3 1.4-.2.7-.2.7-.4 1.7-.4 1.9-.2.9v2.8l-.6 1.9a38.3 38.3 0 0 0-.1 4.1 52.7 52.7 0 0 0-.7 8.7 5.2 5.2 0 0 0 0 .7c.5 3 .8 6 1.5 9l.4 1.8.5 1.8a18.3 18.3 0 0 0 .6 1.7l.4.8.4.8.9 1.7.5.8.5.8.5.8.5.8L7.8 77c1.4 2 2.9 4 4.5 5.9a35.6 35.6 0 0 0 2.6 2.7l.7.6.3.3.4.3 1.5 1.1 1 1a34 34 0 0 0 8.2 6.2l1.4.7 1.5.7.7.3.8.3 1.5.6.9.4.8.4.8.4 1 .4 1.9.7 1.9.6 1.6.4 1.6.4 1.6.3h5.7z"/></g><g id="SvgjsG7094" featureKey="symbolFeature-0" transform="matrix(0.07254742219596343,0,0,0.07254742219596343,87.99382382832633,66.91557259632944)" fill="#000000"><g xmlns="http://www.w3.org/2000/svg" transform="translate(0.000000,994.000000) scale(0.100000,-0.100000)" stroke="none"><path d="M2153 9919 c-183 -27 -455 -124 -602 -217 -296 -186 -464 -368 -609 -657 -56 -113 -78 -178 -122 -350 -51 -202 -63 -316 -57 -520 12 -412 108 -674 344 -941 l81 -90 -118 -147 c-233 -292 -416 -582 -600 -950 -287 -574 -420 -1055 -460 -1657 -37 -559 39 -1185 214 -1762 133 -436 343 -778 682 -1108 317 -308 698 -617 999 -808 128 -81 338 -187 486 -245 331 -131 893 -262 1444 -336 150 -21 967 -92 1270 -111 444 -27 1497 -19 1875 15 609 55 1126 159 1590 321 414 144 1016 463 1343 711 181 138 418 392 555 595 360 534 539 997 639 1643 15 102 18 182 18 540 0 431 -7 559 -46 845 -115 842 -381 1588 -799 2240 -117 184 -201 295 -337 448 l-108 122 76 78 c188 192 321 431 376 676 20 89 22 309 5 391 -76 352 -326 672 -732 937 -414 270 -842 376 -1153 284 -205 -61 -420 -213 -558 -395 -49 -64 -142 -236 -174 -324 -10 -26 -22 -50 -26 -53 -4 -2 -36 7 -71 22 -84 35 -348 132 -423 154 -33 10 -112 36 -175 58 -124 43 -227 62 -475 88 -134 14 -274 16 -850 15 -974 -2 -1087 -11 -1526 -131 -206 -57 -290 -84 -457 -152 -68 -27 -125 -48 -127 -46 -2 1 -22 46 -46 98 -58 129 -112 218 -186 304 -64 74 -181 177 -263 233 -121 82 -296 150 -457 178 -94 16 -337 18 -440 4z m4407 -918 c226 -24 323 -46 377 -88 66 -51 91 -63 216 -108 276 -98 328 -122 557 -250 546 -304 948 -572 1296 -863 225 -187 586 -560 749 -773 138 -179 312 -467 421 -694 268 -560 436 -1170 499 -1815 22 -221 30 -676 16 -866 -39 -538 -195 -1016 -476 -1464 -323 -514 -592 -743 -1270 -1082 -295 -148 -367 -179 -590 -253 -484 -161 -1013 -257 -1635 -295 -216 -13 -1370 -13 -1575 0 -423 28 -1172 94 -1360 121 -720 103 -1271 269 -1631 492 -106 66 -367 258 -509 376 -168 139 -473 421 -543 500 -205 236 -330 450 -427 731 -103 303 -169 610 -217 1025 -20 168 -16 674 6 855 56 470 166 832 386 1279 214 434 444 777 752 1122 171 193 664 713 794 839 379 367 735 622 1169 835 219 107 411 183 612 239 432 123 584 141 1272 156 519 11 872 5 1111 -19z"/><path d="M4045 6764 c-423 -32 -509 -57 -840 -241 -189 -106 -406 -247 -535 -349 -117 -93 -333 -311 -411 -416 -261 -351 -452 -875 -451 -1238 0 -304 134 -611 367 -846 180 -182 381 -270 635 -281 292 -13 570 88 914 332 252 179 1133 899 1272 1040 255 258 384 588 371 945 -8 211 -69 404 -184 577 -51 78 -174 206 -248 258 -123 88 -308 164 -493 205 -82 18 -257 24 -397 14z m-71 -1428 c107 -26 152 -81 149 -183 -4 -154 -123 -276 -300 -306 -91 -16 -133 0 -210 79 -34 35 -66 76 -69 90 -16 64 49 230 119 303 l42 43 105 -6 c58 -3 131 -12 164 -20z"/><path d="M6751 6740 c-81 -22 -262 -99 -357 -153 -223 -126 -396 -295 -484 -472 -87 -176 -120 -318 -120 -510 0 -300 113 -564 339 -792 100 -101 178 -163 388 -306 204 -140 297 -214 488 -392 322 -299 485 -410 716 -483 170 -54 289 -75 439 -75 150 0 233 14 358 63 317 122 596 493 688 915 27 121 24 366 -4 513 -61 309 -225 607 -459 834 -82 80 -319 267 -443 350 -174 117 -614 323 -835 391 -27 9 -72 27 -99 41 -27 14 -61 26 -76 26 -15 0 -53 9 -86 20 -146 51 -327 62 -453 30z m459 -1422 c96 -22 164 -55 212 -105 32 -33 33 -36 33 -117 -1 -76 -4 -90 -38 -158 -43 -88 -85 -122 -169 -140 -106 -22 -227 28 -271 112 -15 30 -18 53 -14 150 4 123 21 185 71 261 24 36 27 37 58 27 18 -5 71 -19 118 -30z"/><path d="M5185 4124 c-158 -25 -322 -74 -405 -122 -104 -60 -177 -153 -205 -258 -42 -162 5 -314 140 -450 109 -111 257 -175 470 -205 44 -6 83 -13 87 -15 16 -10 8 -162 -12 -240 -28 -111 -56 -179 -107 -256 -58 -89 -128 -149 -228 -199 -74 -37 -94 -42 -172 -46 -103 -6 -218 13 -322 55 -115 45 -221 171 -296 349 -29 72 -34 92 -26 111 25 55 1 163 -45 204 -29 26 -89 48 -129 48 -75 0 -163 -61 -208 -145 -34 -64 -30 -174 11 -295 106 -309 278 -534 485 -635 53 -26 146 -59 213 -77 109 -28 133 -31 284 -32 188 -1 238 9 375 73 148 69 289 181 372 294 l35 48 81 -86 c126 -135 267 -218 452 -266 118 -31 341 -33 449 -5 210 56 361 159 496 338 112 148 213 404 213 538 0 200 -154 318 -310 237 -55 -29 -79 -75 -156 -297 -49 -142 -93 -216 -173 -289 -73 -66 -144 -94 -259 -99 -317 -14 -507 188 -567 604 -6 46 -9 86 -6 89 3 3 53 17 110 30 239 54 428 178 499 328 39 83 43 122 24 234 -22 129 -46 183 -107 238 -67 60 -132 89 -273 120 -66 14 -167 37 -224 51 -91 22 -132 26 -320 29 -119 2 -229 1 -246 -1z"/></g></g><g id="SvgjsG7095" featureKey="nameFeature-0" transform="matrix(0.8478017060832801,0,0,0.8478017060832801,29.574881139764617,150.04721039390196)" fill="#000000"><path d="M14.92 40 l-10.88 0 l0 -29.16 l10.48 0 c5.28 -0.08 9.4 2.64 9.4 7.32 c0 0.68 -0.04 1.28 -0.4 2.4 c-0.16 0.56 -0.4 1.04 -0.72 1.52 c-0.6 0.96 -1.8 2.08 -3.32 2.76 c2.04 0.52 3.68 1.76 4.52 3.16 s1.2 2.8 1.2 4 c0 2.72 -1.16 4.84 -3.08 6.12 c-1.92 1.24 -4.4 1.88 -7.2 1.88 z M14.28 13.64 l-7.2 0 l0 10.16 l6.96 0 c2.28 0 3.96 -0.48 5.08 -1.48 s1.68 -2.24 1.68 -3.8 c0 -3.56 -3.2 -4.88 -6.52 -4.88 z M14.4 26.52 l-7.32 0 l0 10.68 l7.92 0 c3.16 0 7.08 -1.28 7.08 -5.4 c0 -2.52 -1.56 -3.92 -3.52 -4.6 c-1.36 -0.52 -2.68 -0.68 -4.16 -0.68 z M53.707 40 l-3.2 -7.44 l-15.88 0 l-3.2 7.44 l-3.12 0 l12.56 -29.16 l3.48 0 l12.6 29.16 l-3.24 0 z M49.347 29.759999999999998 l-6.8 -15.76 l-6.76 15.76 l13.56 0 z M62.014 40 l0 -29.16 l3.08 0 l0 26.28 l13.84 0 l0 2.88 l-16.92 0 z M111.92099999999999 25.36 c0 2.76 -0.64 5.28 -1.88 7.56 c-1.28 2.28 -3.04 4.08 -5.28 5.4 c-2.28 1.32 -4.76 2 -7.56 2 c-2.04 0 -3.96 -0.4 -5.8 -1.16 c-1.8 -0.76 -3.36 -1.8 -4.64 -3.16 c-1.28 -1.28 -2.28 -2.84 -3.04 -4.68 c-0.72 -1.84 -1.12 -3.76 -1.12 -5.8 c0 -2.76 0.64 -5.28 1.92 -7.56 c1.24 -2.28 3 -4.12 5.28 -5.44 c2.24 -1.32 4.76 -1.96 7.52 -1.96 c2.04 0 3.96 0.36 5.8 1.12 c1.8 0.8 3.36 1.84 4.64 3.12 c1.28 1.36 2.32 2.92 3.04 4.72 c0.76 1.84 1.12 3.76 1.12 5.84 z M108.761 25.52 c0 -3.28 -1.2 -6.32 -3.2 -8.52 s-5 -3.6 -8.36 -3.6 c-2.16 0 -4.12 0.56 -5.88 1.6 c-1.76 1.12 -3.12 2.56 -4.08 4.36 c-0.96 1.84 -1.44 3.84 -1.44 6 c0 3.24 1.2 6.32 3.2 8.48 c2 2.2 5 3.6 8.32 3.6 c2.16 0 4.12 -0.56 5.88 -1.64 c1.8 -1.04 3.16 -2.52 4.12 -4.32 s1.44 -3.8 1.44 -5.96 z M118.86800000000001 40 l0 -29.16 l3.08 0 l0 26.28 l13.84 0 l0 2.88 l-16.92 0 z M162.97500000000002 40 l-3.2 -7.44 l-15.88 0 l-3.2 7.44 l-3.12 0 l12.56 -29.16 l3.48 0 l12.6 29.16 l-3.24 0 z M158.615 29.759999999999998 l-6.8 -15.76 l-6.76 15.76 l13.56 0 z M192.04200000000003 10.84 l3 0 l0 29.16 l-3.32 0 l-17.4 -24.8 l0 24.8 l-3.04 0 l0 -29.16 l3.56 0 l17.2 24.52 l0 -24.52 z M204.06900000000002 40 l0 -29.16 l8.68 0 c2.24 0 4.32 0.36 6.24 1.12 c1.92 0.72 3.56 1.76 4.88 3.04 c2.68 2.6 4.28 6.28 4.28 10.36 c0 2.12 -0.4 4.12 -1.2 5.96 s-1.92 3.36 -3.28 4.64 c-2.76 2.52 -6.68 4.04 -10.92 4.04 l-8.68 0 z M207.14900000000003 13.719999999999999 l0 23.4 l5.48 0 c2.44 0 4.6 -0.52 6.44 -1.52 c1.88 -1 3.36 -2.36 4.36 -4.12 c1.04 -1.76 1.56 -3.8 1.56 -6.04 c0 -3.32 -1.24 -6.28 -3.36 -8.4 c-2.08 -2.08 -5.32 -3.32 -9 -3.32 l-5.48 0 z"/></g>
			</g>
		</svg>
	