
        <svg xmlns="http://www.w3.org/2000/svg" xmlns:xlink="http://www.w3.org/1999/xlink" version="1.1" width="3192" height="3192" viewBox="0 0 3192 3192">
			
			<g transform="scale(9.6) translate(10, 10)">
				<defs id="SvgjsDefs7393"/><g id="SvgjsG7394" featureKey="rootContainer" transform="matrix(6.25,0,0,6.25,0.31249597668647766,0)" fill="#fff"><path xmlns="http://www.w3.org/2000/svg" d="M24.95 0a25 25 0 1 0 25 25 25 25 0 0 0-25-25zm0 46.91a22 22 0 1 1 22-22 22 22 0 0 1-22 21.99z"/><path xmlns="http://www.w3.org/2000/svg" d="M24.95 3.65a21.3 21.3 0 1 0 21.3 21.3 21.33 21.33 0 0 0-21.3-21.3z"/></g><g id="SvgjsG7395" featureKey="symbolFeature-0" transform="matrix(0.8750000000000001,0,0,0.8750000000000001,112.25,81)" fill="#000000"><g xmlns="http://www.w3.org/2000/svg"><path d="M85,20H65v-3.999C65,7.163,58.281,0,50,0S35,7.163,35,16.001V20H15l-5,80h80L85,20z M40,16.001C40,9.937,44.487,5,50,5   s10,4.937,10,11.001V20H40V16.001z M83.322,94.166c0.008,0.381,0.169,0.658,0.396,0.834h-3.603c0.22-0.176,0.374-0.452,0.382-0.841   c-0.087-1.339-1.994-1.364-2.085,0.007c0.008,0.381,0.169,0.658,0.396,0.834h-3.603c0.219-0.176,0.374-0.452,0.381-0.841   c-0.086-1.339-1.992-1.364-2.084,0.007c0.008,0.381,0.169,0.658,0.396,0.834h-3.603c0.22-0.176,0.374-0.452,0.382-0.841   c-0.088-1.339-1.994-1.364-2.085,0.007c0.008,0.381,0.169,0.658,0.396,0.834h-3.602c0.219-0.176,0.373-0.452,0.381-0.841   c-0.086-1.339-1.993-1.364-2.084,0.007c0.008,0.381,0.169,0.658,0.396,0.834h-3.604c0.22-0.176,0.375-0.452,0.383-0.841   c-0.088-1.339-1.994-1.364-2.086,0.007c0.009,0.381,0.17,0.658,0.396,0.834H55.57c0.219-0.176,0.373-0.452,0.381-0.841   c-0.086-1.339-1.993-1.364-2.084,0.007c0.008,0.381,0.169,0.658,0.396,0.834h-3.602c0.219-0.176,0.375-0.452,0.382-0.841   c-0.087-1.339-1.994-1.364-2.085,0.007c0.008,0.381,0.169,0.658,0.396,0.834h-3.602c0.219-0.176,0.374-0.452,0.381-0.841   c-0.087-1.339-1.993-1.364-2.084,0.007c0.008,0.381,0.169,0.658,0.396,0.834h-3.603c0.22-0.176,0.374-0.452,0.382-0.841   c-0.087-1.339-1.993-1.364-2.084,0.007c0.008,0.381,0.169,0.658,0.396,0.834h-3.602c0.219-0.176,0.374-0.452,0.381-0.841   c-0.087-1.339-1.993-1.364-2.084,0.007c0.008,0.381,0.169,0.658,0.396,0.834h-3.603c0.22-0.176,0.374-0.452,0.382-0.841   c-0.087-1.339-1.993-1.364-2.084,0.007c0.008,0.381,0.169,0.658,0.396,0.834h-3.603c0.22-0.176,0.374-0.452,0.382-0.841   c-0.087-1.339-1.993-1.364-2.085,0.007c0.008,0.381,0.17,0.658,0.396,0.834h-3.603c0.219-0.176,0.374-0.452,0.382-0.841   c-0.087-1.339-1.994-1.364-2.085,0.007c0.008,0.381,0.169,0.658,0.396,0.834h-3.603c0.22-0.176,0.374-0.452,0.382-0.841   c-0.049-0.759-0.684-1.095-1.241-0.994l0.179-2.853c0.521,0.016,1.048-0.332,1.063-1.063c-0.04-0.621-0.473-0.955-0.934-1.003   l0.18-2.882c0.402-0.105,0.742-0.44,0.753-1.024c-0.031-0.481-0.299-0.79-0.631-0.928l1.01-16.169   c0.107,1.306,2.048,1.326,2.076-0.087c-0.083-1.286-1.84-1.356-2.061-0.146l0.252-4.034c0.56,0.609,1.787,0.393,1.809-0.729   c-0.065-0.994-1.132-1.263-1.715-0.774l0.199-3.187c0.611,0.301,1.497,0.002,1.516-0.949c-0.054-0.831-0.81-1.155-1.396-0.953   l0.182-2.908c0.565,0.094,1.199-0.246,1.215-1.048c-0.045-0.689-0.573-1.028-1.086-1.009l0.178-2.846   c0.466-0.052,0.896-0.396,0.909-1.054c-0.036-0.552-0.382-0.877-0.782-0.977l0.186-2.963c0.329-0.146,0.586-0.464,0.596-0.97   c-0.027-0.407-0.222-0.69-0.482-0.852l0.988-15.801c0.454,0.842,1.925,0.698,1.949-0.531c-0.011-0.162-0.049-0.303-0.105-0.426   h3.037c-0.057,0.125-0.096,0.268-0.107,0.433c0.029,1.389,2.057,1.436,2.085-0.006c-0.01-0.162-0.048-0.303-0.105-0.426h3.037   c-0.057,0.125-0.096,0.268-0.106,0.433c0.029,1.389,2.056,1.436,2.084-0.006C31.395,25.265,31.356,25.123,31.3,25h3.037   c-0.057,0.125-0.095,0.268-0.106,0.433c0.012,0.57,0.361,0.91,0.77,1.018v2.911c-0.394,0.101-0.733,0.423-0.77,0.981   c0.013,0.608,0.409,0.958,0.852,1.04c0.104,0.921,0.314,1.934,0.66,2.963c-0.597-0.292-1.452-0.001-1.512,0.907   c0.026,1.25,1.669,1.409,2.017,0.375c0.21,0.467,0.451,0.93,0.725,1.382c-0.156,0.167-0.267,0.397-0.287,0.698   c0.019,0.907,0.889,1.238,1.499,0.958c0.325,0.37,0.678,0.725,1.064,1.059c-0.059,0.125-0.097,0.271-0.108,0.438   c0.022,1.07,1.228,1.34,1.794,0.75c0.464,0.265,0.962,0.501,1.493,0.707c-0.42,0.081-0.794,0.41-0.833,0.998   c0.029,1.388,2.057,1.436,2.085-0.006c-0.018-0.273-0.113-0.488-0.251-0.651c0.935,0.27,1.965,0.447,3.098,0.512   c-0.008,0.048-0.019,0.094-0.023,0.146c0.029,1.388,2.057,1.436,2.085-0.006c-0.001-0.019-0.006-0.034-0.008-0.052   c6.021,0.628,6.406,6.484,6.42,7.657c-2.488,0.421-4.767,1.457-6.678,2.943c0.155-0.175,0.26-0.414,0.266-0.729   c-0.087-1.339-1.993-1.364-2.085,0.007c0.02,0.934,0.943,1.258,1.555,0.933c-0.735,0.598-1.412,1.264-2.022,1.989   c0.059-0.135,0.094-0.293,0.098-0.475c-0.087-1.338-1.993-1.363-2.084,0.007c0.021,0.993,1.061,1.296,1.664,0.863   c-1.267,1.613-2.206,3.494-2.727,5.542c-0.585-0.2-1.335,0.111-1.392,0.959c0.015,0.687,0.517,1.043,1.024,1.057   c-0.062,0.555-0.098,1.117-0.098,1.689v10c0,3.083,0.932,5.948,2.526,8.331c-0.483,0.018-0.954,0.352-0.999,1.016   c0.026,1.264,1.703,1.413,2.027,0.344c0.344,0.405,0.709,0.792,1.094,1.159c-0.348,0.128-0.632,0.443-0.666,0.952   c0.028,1.308,1.826,1.425,2.059,0.229c2.5,1.865,5.6,2.969,8.958,2.969c2.319,0,4.516-0.527,6.477-1.468   c-0.17,0.169-0.29,0.407-0.312,0.725c0.029,1.388,2.057,1.436,2.084-0.007c-0.049-0.751-0.67-1.088-1.223-0.998   c0.583-0.31,1.142-0.657,1.676-1.038c0.377,0.966,1.977,0.862,2.002-0.419c-0.025-0.396-0.213-0.676-0.465-0.839   c0.35-0.327,0.684-0.671,1.002-1.03c0.486,0.78,1.895,0.616,1.918-0.585c-0.034-0.522-0.346-0.842-0.718-0.96   c1.615-2.393,2.559-5.276,2.559-8.381V65c0-3.41-1.141-6.551-3.057-9.068c0.565,0.095,1.2-0.245,1.216-1.049   c-0.088-1.338-1.993-1.363-2.085,0.006c-0.456-0.498-0.944-0.967-1.463-1.4c0.53,0.029,1.078-0.314,1.093-1.06   c-0.087-1.339-1.993-1.364-2.084,0.007c0.002,0.123,0.025,0.232,0.057,0.334c-1.811-1.285-3.916-2.182-6.197-2.562   c0-1.184-0.197-2.672-0.686-4.21c0.611,0.328,1.527,0.033,1.547-0.934c-0.079-1.216-1.656-1.345-2.014-0.331   c-0.2-0.474-0.431-0.946-0.694-1.409c0.147-0.173,0.247-0.408,0.253-0.714c-0.054-0.831-0.807-1.154-1.394-0.955   c-1.004-1.232-2.306-2.31-3.974-3.06c0.26-0.169,0.449-0.464,0.458-0.896c-0.087-1.339-1.993-1.364-2.085,0.006   c0.003,0.117,0.023,0.221,0.053,0.319c-0.882-0.252-1.847-0.42-2.902-0.488c-0.211-1.091-1.737-1.14-2.018-0.082   c-4.746-0.419-6.059-3.936-6.415-6.06c0.531,0.03,1.079-0.314,1.093-1.06c-0.049-0.752-0.671-1.089-1.224-0.998v-2.864   c0.567,0.099,1.208-0.241,1.224-1.047c-0.01-0.162-0.048-0.303-0.105-0.426h3.037c-0.057,0.125-0.096,0.268-0.106,0.433   c0.029,1.389,2.056,1.436,2.084-0.006c-0.01-0.162-0.048-0.303-0.105-0.426h3.037c-0.057,0.125-0.095,0.268-0.106,0.433   c0.029,1.389,2.056,1.436,2.085-0.006c-0.012-0.162-0.049-0.303-0.106-0.426h3.036c-0.057,0.125-0.095,0.268-0.105,0.433   c0.028,1.389,2.057,1.436,2.084-0.006c-0.01-0.162-0.049-0.303-0.105-0.426h3.037c-0.058,0.125-0.096,0.268-0.107,0.433   c0.029,1.389,2.057,1.436,2.086-0.006c-0.011-0.162-0.049-0.303-0.105-0.426h3.036c-0.058,0.125-0.096,0.268-0.106,0.433   c0.029,1.389,2.057,1.436,2.084-0.006c-0.01-0.162-0.048-0.303-0.105-0.426h3.037c-0.057,0.125-0.096,0.268-0.106,0.433   c0.029,1.389,2.056,1.436,2.085-0.006c-0.011-0.162-0.049-0.303-0.105-0.426h3.036c-0.058,0.125-0.096,0.268-0.106,0.433   c0.029,1.389,2.057,1.436,2.084-0.006c-0.01-0.162-0.048-0.303-0.105-0.426h3.037c-0.057,0.125-0.096,0.268-0.106,0.433   c0.024,1.183,1.496,1.389,1.95,0.533l0.986,15.79c-0.259,0.162-0.454,0.446-0.482,0.861c0.011,0.486,0.268,0.804,0.596,0.955   l0.186,2.97c-0.398,0.098-0.743,0.421-0.781,0.984c0.014,0.634,0.443,0.984,0.908,1.046l0.179,2.849   c-0.513-0.022-1.04,0.311-1.087,1.016c0.017,0.771,0.65,1.128,1.216,1.045l0.182,2.906c-0.586-0.204-1.341,0.107-1.397,0.958   c0.02,0.915,0.906,1.243,1.517,0.95l0.198,3.182c-0.581-0.486-1.646-0.239-1.715,0.777c0.023,1.079,1.25,1.344,1.81,0.733   l0.251,4.011c-0.225-1.176-1.973-1.147-2.061,0.166c0.029,1.358,1.967,1.429,2.076,0.079l0.715,11.444   c-0.184,0.169-0.313,0.418-0.336,0.75c0.008,0.404,0.188,0.691,0.438,0.864l0.193,3.108c-0.331,0.137-0.598,0.445-0.631,0.937   c0.012,0.562,0.352,0.9,0.753,1.013l0.181,2.887c-0.46,0.045-0.891,0.376-0.934,1.011c0.015,0.703,0.542,1.061,1.063,1.057   l0.179,2.853C84.008,93.063,83.374,93.39,83.322,94.166z M67.521,72.5V75c0,5.513-4.487,10-10,10s-10-4.487-10-10v-2.5H67.521z    M60.021,67.5V55.316c4.308,1.113,7.5,5.033,7.5,9.684v2.5H60.021z M55.021,67.5h-7.5V65c0-4.65,3.192-8.57,7.5-9.684V67.5z    M24.042,27.881c-0.028,1.442-2.056,1.395-2.085,0.007C22.048,26.517,23.955,26.542,24.042,27.881z M28.951,27.881   c-0.028,1.442-2.055,1.395-2.084,0.007C26.958,26.517,28.864,26.542,28.951,27.881z M33.86,27.881   c-0.028,1.442-2.056,1.395-2.085,0.007C31.867,26.517,33.773,26.542,33.86,27.881z M43.679,27.881   c-0.028,1.442-2.056,1.395-2.085,0.007C41.685,26.517,43.592,26.542,43.679,27.881z M48.588,27.881   c-0.028,1.442-2.056,1.395-2.085,0.007C46.595,26.517,48.501,26.542,48.588,27.881z M53.497,27.881   c-0.028,1.442-2.056,1.395-2.085,0.007C51.504,26.517,53.41,26.542,53.497,27.881z M58.406,27.881   c-0.028,1.442-2.056,1.395-2.085,0.007C56.413,26.517,58.319,26.542,58.406,27.881z M63.315,27.881   c-0.028,1.442-2.056,1.395-2.085,0.007C61.322,26.517,63.229,26.542,63.315,27.881z M68.225,27.881   c-0.028,1.442-2.055,1.395-2.084,0.007C66.231,26.517,68.138,26.542,68.225,27.881z M73.134,27.881   c-0.028,1.442-2.056,1.395-2.085,0.007C71.141,26.517,73.047,26.542,73.134,27.881z M78.043,27.881   c-0.027,1.442-2.056,1.395-2.084,0.007C76.05,26.517,77.957,26.542,78.043,27.881z M21.587,30.336   c-0.028,1.442-2.056,1.395-2.085,0.006C19.593,28.972,21.5,28.997,21.587,30.336z M26.496,30.336   c-0.028,1.442-2.056,1.395-2.085,0.006C24.503,28.972,26.409,28.997,26.496,30.336z M31.405,30.336   c-0.028,1.442-2.056,1.395-2.084,0.006C29.412,28.972,31.318,28.997,31.405,30.336z M46.133,30.336   c-0.028,1.442-2.055,1.395-2.084,0.006C44.14,28.972,46.046,28.997,46.133,30.336z M51.043,30.336   c-0.029,1.442-2.056,1.395-2.085,0.006C49.049,28.972,50.956,28.997,51.043,30.336z M55.951,30.336   c-0.027,1.442-2.056,1.395-2.084,0.006C53.958,28.972,55.865,28.997,55.951,30.336z M60.861,30.336   c-0.029,1.442-2.057,1.395-2.086,0.006C58.867,28.972,60.773,28.997,60.861,30.336z M65.77,30.336   c-0.027,1.442-2.055,1.395-2.084,0.006C63.776,28.972,65.684,28.997,65.77,30.336z M70.68,30.336   c-0.029,1.442-2.056,1.395-2.085,0.006C68.686,28.972,70.592,28.997,70.68,30.336z M75.588,30.336   c-0.027,1.442-2.055,1.395-2.084,0.006C73.596,28.972,75.502,28.997,75.588,30.336z M80.498,30.336   c-0.028,1.442-2.056,1.395-2.085,0.006C78.504,28.972,80.411,28.997,80.498,30.336z M24.042,32.791   c-0.028,1.442-2.056,1.395-2.085,0.006C22.048,31.426,23.955,31.452,24.042,32.791z M28.951,32.791   c-0.028,1.442-2.055,1.395-2.084,0.006C26.958,31.426,28.864,31.452,28.951,32.791z M33.86,32.791   c-0.028,1.442-2.056,1.395-2.085,0.006C31.867,31.426,33.773,31.452,33.86,32.791z M43.679,32.791   c-0.028,1.442-2.056,1.395-2.085,0.006C41.685,31.426,43.592,31.452,43.679,32.791z M48.588,32.791   c-0.028,1.442-2.056,1.395-2.085,0.006C46.595,31.426,48.501,31.452,48.588,32.791z M53.497,32.791   c-0.028,1.442-2.056,1.395-2.085,0.006C51.504,31.426,53.41,31.452,53.497,32.791z M58.406,32.791   c-0.028,1.442-2.056,1.395-2.085,0.006C56.413,31.426,58.319,31.452,58.406,32.791z M63.315,32.791   c-0.028,1.442-2.056,1.395-2.085,0.006C61.322,31.426,63.229,31.452,63.315,32.791z M68.225,32.791   c-0.028,1.442-2.055,1.395-2.084,0.006C66.231,31.426,68.138,31.452,68.225,32.791z M73.134,32.791   c-0.028,1.442-2.056,1.395-2.085,0.006C71.141,31.426,73.047,31.452,73.134,32.791z M78.043,32.791   c-0.027,1.442-2.056,1.395-2.084,0.006C76.05,31.426,77.957,31.452,78.043,32.791z M21.587,35.246   c-0.028,1.442-2.056,1.395-2.085,0.006C19.593,33.881,21.5,33.907,21.587,35.246z M26.496,35.246   c-0.028,1.442-2.056,1.395-2.085,0.006C24.503,33.881,26.409,33.907,26.496,35.246z M31.405,35.246   c-0.028,1.442-2.056,1.395-2.084,0.006C29.412,33.881,31.318,33.907,31.405,35.246z M46.133,35.246   c-0.028,1.442-2.055,1.395-2.084,0.006C44.14,33.881,46.046,33.907,46.133,35.246z M51.043,35.246   c-0.029,1.442-2.056,1.395-2.085,0.006C49.049,33.881,50.956,33.907,51.043,35.246z M55.951,35.246   c-0.027,1.442-2.056,1.395-2.084,0.006C53.958,33.881,55.865,33.907,55.951,35.246z M60.861,35.246   c-0.029,1.442-2.057,1.395-2.086,0.006C58.867,33.881,60.773,33.907,60.861,35.246z M65.77,35.246   c-0.027,1.442-2.055,1.395-2.084,0.006C63.776,33.881,65.684,33.907,65.77,35.246z M70.68,35.246   c-0.029,1.442-2.056,1.395-2.085,0.006C68.686,33.881,70.592,33.907,70.68,35.246z M75.588,35.246   c-0.027,1.442-2.055,1.395-2.084,0.006C73.596,33.881,75.502,33.907,75.588,35.246z M80.498,35.246   c-0.028,1.442-2.056,1.395-2.085,0.006C78.504,33.881,80.411,33.907,80.498,35.246z M24.042,37.7   c-0.028,1.442-2.056,1.395-2.085,0.006C22.048,36.336,23.955,36.361,24.042,37.7z M28.951,37.7   c-0.028,1.442-2.055,1.395-2.084,0.006C26.958,36.336,28.864,36.361,28.951,37.7z M33.86,37.7   c-0.028,1.442-2.056,1.395-2.085,0.006C31.867,36.336,33.773,36.361,33.86,37.7z M58.406,37.7   c-0.028,1.442-2.056,1.395-2.085,0.006C56.413,36.336,58.319,36.361,58.406,37.7z M63.315,37.7   c-0.028,1.442-2.056,1.395-2.085,0.006C61.322,36.336,63.229,36.361,63.315,37.7z M68.225,37.7   c-0.028,1.442-2.055,1.395-2.084,0.006C66.231,36.336,68.138,36.361,68.225,37.7z M73.134,37.7   c-0.028,1.442-2.056,1.395-2.085,0.006C71.141,36.336,73.047,36.361,73.134,37.7z M78.043,37.7   c-0.027,1.442-2.056,1.395-2.084,0.006C76.05,36.336,77.957,36.361,78.043,37.7z M21.587,40.155   c-0.028,1.442-2.056,1.395-2.085,0.006C19.593,38.791,21.5,38.816,21.587,40.155z M26.496,40.155   c-0.028,1.442-2.056,1.395-2.085,0.006C24.503,38.791,26.409,38.816,26.496,40.155z M31.405,40.155   c-0.028,1.442-2.056,1.395-2.084,0.006C29.412,38.791,31.318,38.816,31.405,40.155z M36.314,40.155   c-0.028,1.442-2.056,1.395-2.084,0.006C34.321,38.791,36.228,38.816,36.314,40.155z M60.861,40.155   c-0.029,1.442-2.057,1.395-2.086,0.006C58.867,38.791,60.773,38.816,60.861,40.155z M65.77,40.155   c-0.027,1.442-2.055,1.395-2.084,0.006C63.776,38.791,65.684,38.816,65.77,40.155z M70.68,40.155   c-0.029,1.442-2.056,1.395-2.085,0.006C68.686,38.791,70.592,38.816,70.68,40.155z M75.588,40.155   c-0.027,1.442-2.055,1.395-2.084,0.006C73.596,38.791,75.502,38.816,75.588,40.155z M80.498,40.155   c-0.028,1.442-2.056,1.395-2.085,0.006C78.504,38.791,80.411,38.816,80.498,40.155z M24.042,42.61   c-0.028,1.442-2.056,1.395-2.085,0.006C22.048,41.245,23.955,41.271,24.042,42.61z M28.951,42.61   c-0.028,1.442-2.055,1.395-2.084,0.006C26.958,41.245,28.864,41.271,28.951,42.61z M33.86,42.61   c-0.028,1.442-2.056,1.395-2.085,0.006C31.867,41.245,33.773,41.271,33.86,42.61z M38.77,42.61   c-0.028,1.442-2.056,1.395-2.085,0.006C36.776,41.245,38.683,41.271,38.77,42.61z M63.315,42.61   c-0.028,1.442-2.056,1.395-2.085,0.006C61.322,41.245,63.229,41.271,63.315,42.61z M68.225,42.61   c-0.028,1.442-2.055,1.395-2.084,0.006C66.231,41.245,68.138,41.271,68.225,42.61z M73.134,42.61   c-0.028,1.442-2.056,1.395-2.085,0.006C71.141,41.245,73.047,41.271,73.134,42.61z M78.043,42.61   c-0.027,1.442-2.056,1.395-2.084,0.006C76.05,41.245,77.957,41.271,78.043,42.61z M21.587,45.064   c-0.028,1.442-2.056,1.395-2.085,0.006C19.593,43.7,21.5,43.726,21.587,45.064z M26.496,45.064   c-0.028,1.442-2.056,1.395-2.085,0.006C24.503,43.7,26.409,43.726,26.496,45.064z M31.405,45.064   c-0.028,1.442-2.056,1.395-2.084,0.006C29.412,43.7,31.318,43.726,31.405,45.064z M36.314,45.064   c-0.028,1.442-2.056,1.395-2.084,0.006C34.321,43.7,36.228,43.726,36.314,45.064z M41.224,45.064   c-0.028,1.442-2.056,1.395-2.084,0.006C39.23,43.7,41.137,43.726,41.224,45.064z M44.048,45.071   c0.091-1.371,1.998-1.345,2.084-0.006C46.104,46.507,44.078,46.459,44.048,45.071z M48.958,45.071   c0.091-1.371,1.998-1.345,2.085-0.006C51.014,46.507,48.987,46.459,48.958,45.071z M65.77,45.064   c-0.027,1.442-2.055,1.395-2.084,0.006C63.776,43.7,65.684,43.726,65.77,45.064z M70.68,45.064   c-0.029,1.442-2.056,1.395-2.085,0.006C68.686,43.7,70.592,43.726,70.68,45.064z M75.588,45.064   c-0.027,1.442-2.055,1.395-2.084,0.006C73.596,43.7,75.502,43.726,75.588,45.064z M80.498,45.064   c-0.028,1.442-2.056,1.395-2.085,0.006C78.504,43.7,80.411,43.726,80.498,45.064z M24.042,47.52   c-0.028,1.442-2.056,1.395-2.085,0.006C22.048,46.155,23.955,46.181,24.042,47.52z M28.951,47.52   c-0.028,1.442-2.055,1.395-2.084,0.006C26.958,46.155,28.864,46.181,28.951,47.52z M33.86,47.52   c-0.028,1.442-2.056,1.395-2.085,0.006C31.867,46.155,33.773,46.181,33.86,47.52z M38.77,47.52   c-0.028,1.442-2.056,1.395-2.085,0.006C36.776,46.155,38.683,46.181,38.77,47.52z M41.594,47.525   c0.091-1.37,1.998-1.345,2.085-0.006C43.65,48.962,41.623,48.914,41.594,47.525z M46.503,47.525   c0.092-1.37,1.998-1.345,2.085-0.006C48.56,48.962,46.532,48.914,46.503,47.525z M51.412,47.525   c0.092-1.37,1.998-1.345,2.085-0.006C53.469,48.962,51.441,48.914,51.412,47.525z M63.315,47.52   c-0.028,1.442-2.056,1.395-2.085,0.006C61.322,46.155,63.229,46.181,63.315,47.52z M68.225,47.52   c-0.028,1.442-2.055,1.395-2.084,0.006C66.231,46.155,68.138,46.181,68.225,47.52z M73.134,47.52   c-0.028,1.442-2.056,1.395-2.085,0.006C71.141,46.155,73.047,46.181,73.134,47.52z M78.043,47.52   c-0.027,1.442-2.056,1.395-2.084,0.006C76.05,46.155,77.957,46.181,78.043,47.52z M21.587,49.974   c-0.028,1.442-2.056,1.395-2.085,0.006C19.593,48.609,21.5,48.635,21.587,49.974z M26.496,49.974   c-0.028,1.442-2.056,1.395-2.085,0.006C24.503,48.609,26.409,48.635,26.496,49.974z M31.405,49.974   c-0.028,1.442-2.056,1.395-2.084,0.006C29.412,48.609,31.318,48.635,31.405,49.974z M36.314,49.974   c-0.028,1.442-2.056,1.395-2.084,0.006C34.321,48.609,36.228,48.635,36.314,49.974z M41.224,49.974   c-0.028,1.442-2.056,1.395-2.084,0.006C39.23,48.609,41.137,48.635,41.224,49.974z M44.048,49.98   c0.091-1.371,1.998-1.345,2.084-0.006C46.104,51.416,44.078,51.369,44.048,49.98z M48.958,49.98   c0.091-1.371,1.998-1.345,2.085-0.006C51.014,51.416,48.987,51.369,48.958,49.98z M65.77,49.974   c-0.027,1.442-2.055,1.395-2.084,0.006C63.776,48.609,65.684,48.635,65.77,49.974z M70.68,49.974   c-0.029,1.442-2.056,1.395-2.085,0.006C68.686,48.609,70.592,48.635,70.68,49.974z M75.588,49.974   c-0.027,1.442-2.055,1.395-2.084,0.006C73.596,48.609,75.502,48.635,75.588,49.974z M80.498,49.974   c-0.028,1.442-2.056,1.395-2.085,0.006C78.504,48.609,80.411,48.635,80.498,49.974z M24.042,52.429   c-0.028,1.442-2.056,1.395-2.085,0.007C22.048,51.064,23.955,51.09,24.042,52.429z M28.951,52.429   c-0.028,1.442-2.055,1.395-2.084,0.007C26.958,51.064,28.864,51.09,28.951,52.429z M33.86,52.429   c-0.028,1.442-2.056,1.395-2.085,0.007C31.867,51.064,33.773,51.09,33.86,52.429z M38.77,52.429   c-0.028,1.442-2.056,1.395-2.085,0.007C36.776,51.064,38.683,51.09,38.77,52.429z M41.594,52.436   c0.091-1.371,1.998-1.346,2.085-0.007C43.65,53.871,41.623,53.823,41.594,52.436z M73.134,52.429   c-0.028,1.442-2.056,1.395-2.085,0.007C71.141,51.064,73.047,51.09,73.134,52.429z M78.043,52.429   c-0.027,1.442-2.056,1.395-2.084,0.007C76.05,51.064,77.957,51.09,78.043,52.429z M21.587,54.883   c-0.028,1.443-2.056,1.396-2.085,0.007C19.593,53.52,21.5,53.545,21.587,54.883z M26.496,54.883   c-0.028,1.443-2.056,1.396-2.085,0.007C24.503,53.52,26.409,53.545,26.496,54.883z M31.405,54.883   c-0.028,1.443-2.056,1.396-2.084,0.007C29.412,53.52,31.318,53.545,31.405,54.883z M36.314,54.883   c-0.028,1.443-2.056,1.396-2.084,0.007C34.321,53.52,36.228,53.545,36.314,54.883z M41.224,54.883   c-0.028,1.443-2.056,1.396-2.084,0.007C39.23,53.52,41.137,53.545,41.224,54.883z M75.588,54.883   c-0.027,1.443-2.055,1.396-2.084,0.007C73.596,53.52,75.502,53.545,75.588,54.883z M80.498,54.883   c-0.028,1.443-2.056,1.396-2.085,0.007C78.504,53.52,80.411,53.545,80.498,54.883z M24.042,57.338   c-0.028,1.443-2.056,1.395-2.085,0.007C22.048,55.974,23.955,56,24.042,57.338z M28.951,57.338   c-0.028,1.443-2.055,1.395-2.084,0.007C26.958,55.974,28.864,56,28.951,57.338z M33.86,57.338   c-0.028,1.443-2.056,1.395-2.085,0.007C31.867,55.974,33.773,56,33.86,57.338z M38.77,57.338c-0.028,1.443-2.056,1.395-2.085,0.007   C36.776,55.974,38.683,56,38.77,57.338z M41.594,57.345c0.091-1.371,1.998-1.345,2.085-0.007   C43.65,58.781,41.623,58.732,41.594,57.345z M73.134,57.338c-0.028,1.443-2.056,1.395-2.085,0.007   C71.141,55.974,73.047,56,73.134,57.338z M78.043,57.338c-0.027,1.443-2.056,1.395-2.084,0.007   C76.05,55.974,77.957,56,78.043,57.338z M21.587,59.793c-0.028,1.442-2.056,1.395-2.085,0.006   C19.593,58.429,21.5,58.454,21.587,59.793z M26.496,59.793c-0.028,1.442-2.056,1.395-2.085,0.006   C24.503,58.429,26.409,58.454,26.496,59.793z M31.405,59.793c-0.028,1.442-2.056,1.395-2.084,0.006   C29.412,58.429,31.318,58.454,31.405,59.793z M36.314,59.793c-0.028,1.442-2.056,1.395-2.084,0.006   C34.321,58.429,36.228,58.454,36.314,59.793z M41.224,59.793c-0.028,1.442-2.056,1.395-2.084,0.006   C39.23,58.429,41.137,58.454,41.224,59.793z M75.588,59.793c-0.027,1.442-2.055,1.395-2.084,0.006   C73.596,58.429,75.502,58.454,75.588,59.793z M80.498,59.793c-0.028,1.442-2.056,1.395-2.085,0.006   C78.504,58.429,80.411,58.454,80.498,59.793z M24.042,62.248c-0.028,1.442-2.056,1.395-2.085,0.006   C22.048,60.884,23.955,60.909,24.042,62.248z M28.951,62.248c-0.028,1.442-2.055,1.395-2.084,0.006   C26.958,60.884,28.864,60.909,28.951,62.248z M33.86,62.248c-0.028,1.442-2.056,1.395-2.085,0.006   C31.867,60.884,33.773,60.909,33.86,62.248z M38.77,62.248c-0.028,1.442-2.056,1.395-2.085,0.006   C36.776,60.884,38.683,60.909,38.77,62.248z M78.043,62.248c-0.027,1.442-2.056,1.395-2.084,0.006   C76.05,60.884,77.957,60.909,78.043,62.248z M21.587,64.702c-0.028,1.442-2.056,1.396-2.085,0.007   C19.593,63.338,21.5,63.363,21.587,64.702z M26.496,64.702c-0.028,1.442-2.056,1.396-2.085,0.007   C24.503,63.338,26.409,63.363,26.496,64.702z M31.405,64.702c-0.028,1.442-2.056,1.396-2.084,0.007   C29.412,63.338,31.318,63.363,31.405,64.702z M36.314,64.702c-0.028,1.442-2.056,1.396-2.084,0.007   C34.321,63.338,36.228,63.363,36.314,64.702z M41.224,64.702c-0.028,1.442-2.056,1.396-2.084,0.007   C39.23,63.338,41.137,63.363,41.224,64.702z M75.588,64.702c-0.027,1.442-2.055,1.396-2.084,0.007   C73.596,63.338,75.502,63.363,75.588,64.702z M80.498,64.702c-0.028,1.442-2.056,1.396-2.085,0.007   C78.504,63.338,80.411,63.363,80.498,64.702z M24.042,67.157c-0.028,1.442-2.056,1.395-2.085,0.007   C22.048,65.793,23.955,65.818,24.042,67.157z M28.951,67.157c-0.028,1.442-2.055,1.395-2.084,0.007   C26.958,65.793,28.864,65.818,28.951,67.157z M33.86,67.157c-0.028,1.442-2.056,1.395-2.085,0.007   C31.867,65.793,33.773,65.818,33.86,67.157z M38.77,67.157c-0.028,1.442-2.056,1.395-2.085,0.007   C36.776,65.793,38.683,65.818,38.77,67.157z M78.043,67.157c-0.027,1.442-2.056,1.395-2.084,0.007   C76.05,65.793,77.957,65.818,78.043,67.157z M21.587,69.612c-0.028,1.442-2.056,1.395-2.085,0.007   C19.593,68.248,21.5,68.273,21.587,69.612z M26.496,69.612c-0.028,1.442-2.056,1.395-2.085,0.007   C24.503,68.248,26.409,68.273,26.496,69.612z M31.405,69.612c-0.028,1.442-2.056,1.395-2.084,0.007   C29.412,68.248,31.318,68.273,31.405,69.612z M36.314,69.612c-0.028,1.442-2.056,1.395-2.084,0.007   C34.321,68.248,36.228,68.273,36.314,69.612z M41.224,69.612c-0.028,1.442-2.056,1.395-2.084,0.007   C39.23,68.248,41.137,68.273,41.224,69.612z M75.588,69.612c-0.027,1.442-2.055,1.395-2.084,0.007   C73.596,68.248,75.502,68.273,75.588,69.612z M80.498,69.612c-0.028,1.442-2.056,1.395-2.085,0.007   C78.504,68.248,80.411,68.273,80.498,69.612z M19.132,72.066c-0.029,1.443-2.056,1.396-2.084,0.007   C17.139,70.703,19.045,70.729,19.132,72.066z M24.042,72.066c-0.028,1.443-2.056,1.396-2.085,0.007   C22.048,70.703,23.955,70.729,24.042,72.066z M28.951,72.066c-0.028,1.443-2.055,1.396-2.084,0.007   C26.958,70.703,28.864,70.729,28.951,72.066z M33.86,72.066c-0.028,1.443-2.056,1.396-2.085,0.007   C31.867,70.703,33.773,70.729,33.86,72.066z M38.77,72.066c-0.028,1.443-2.056,1.396-2.085,0.007   C36.776,70.703,38.683,70.729,38.77,72.066z M78.043,72.066c-0.027,1.443-2.056,1.396-2.084,0.007   C76.05,70.703,77.957,70.729,78.043,72.066z M82.953,72.066c-0.029,1.443-2.057,1.396-2.086,0.007   C80.959,70.703,82.865,70.729,82.953,72.066z M21.587,74.521c-0.028,1.442-2.056,1.395-2.085,0.007   C19.593,73.157,21.5,73.183,21.587,74.521z M26.496,74.521c-0.028,1.442-2.056,1.395-2.085,0.007   C24.503,73.157,26.409,73.183,26.496,74.521z M31.405,74.521c-0.028,1.442-2.056,1.395-2.084,0.007   C29.412,73.157,31.318,73.183,31.405,74.521z M36.314,74.521c-0.028,1.442-2.056,1.395-2.084,0.007   C34.321,73.157,36.228,73.183,36.314,74.521z M41.224,74.521c-0.028,1.442-2.056,1.395-2.084,0.007   C39.23,73.157,41.137,73.183,41.224,74.521z M75.588,74.521c-0.027,1.442-2.055,1.395-2.084,0.007   C73.596,73.157,75.502,73.183,75.588,74.521z M80.498,74.521c-0.028,1.442-2.056,1.395-2.085,0.007   C78.504,73.157,80.411,73.183,80.498,74.521z M19.132,76.977c-0.029,1.442-2.056,1.395-2.084,0.006   C17.139,75.612,19.045,75.638,19.132,76.977z M24.042,76.977c-0.028,1.442-2.056,1.395-2.085,0.006   C22.048,75.612,23.955,75.638,24.042,76.977z M28.951,76.977c-0.028,1.442-2.055,1.395-2.084,0.006   C26.958,75.612,28.864,75.638,28.951,76.977z M33.86,76.977c-0.028,1.442-2.056,1.395-2.085,0.006   C31.867,75.612,33.773,75.638,33.86,76.977z M38.77,76.977c-0.028,1.442-2.056,1.395-2.085,0.006   C36.776,75.612,38.683,75.638,38.77,76.977z M78.043,76.977c-0.027,1.442-2.056,1.395-2.084,0.006   C76.05,75.612,77.957,75.638,78.043,76.977z M82.953,76.977c-0.029,1.442-2.057,1.395-2.086,0.006   C80.959,75.612,82.865,75.638,82.953,76.977z M21.587,79.432c-0.028,1.441-2.056,1.395-2.085,0.006   C19.593,78.066,21.5,78.093,21.587,79.432z M26.496,79.432c-0.028,1.441-2.056,1.395-2.085,0.006   C24.503,78.066,26.409,78.093,26.496,79.432z M31.405,79.432c-0.028,1.441-2.056,1.395-2.084,0.006   C29.412,78.066,31.318,78.093,31.405,79.432z M36.314,79.432c-0.028,1.441-2.056,1.395-2.084,0.006   C34.321,78.066,36.228,78.093,36.314,79.432z M41.224,79.432c-0.028,1.441-2.056,1.395-2.084,0.006   C39.23,78.066,41.137,78.093,41.224,79.432z M75.588,79.432c-0.027,1.441-2.055,1.395-2.084,0.006   C73.596,78.066,75.502,78.093,75.588,79.432z M80.498,79.432c-0.028,1.441-2.056,1.395-2.085,0.006   C78.504,78.066,80.411,78.093,80.498,79.432z M19.132,81.886c-0.029,1.442-2.056,1.395-2.084,0.007   C17.139,80.521,19.045,80.547,19.132,81.886z M24.042,81.886c-0.028,1.442-2.056,1.395-2.085,0.007   C22.048,80.521,23.955,80.547,24.042,81.886z M28.951,81.886c-0.028,1.442-2.055,1.395-2.084,0.007   C26.958,80.521,28.864,80.547,28.951,81.886z M33.86,81.886c-0.028,1.442-2.056,1.395-2.085,0.007   C31.867,80.521,33.773,80.547,33.86,81.886z M38.77,81.886c-0.028,1.442-2.056,1.395-2.085,0.007   C36.776,80.521,38.683,80.547,38.77,81.886z M43.679,81.886c-0.028,1.442-2.056,1.395-2.085,0.007   C41.685,80.521,43.592,80.547,43.679,81.886z M73.134,81.886c-0.028,1.442-2.056,1.395-2.085,0.007   C71.141,80.521,73.047,80.547,73.134,81.886z M78.043,81.886c-0.027,1.442-2.056,1.395-2.084,0.007   C76.05,80.521,77.957,80.547,78.043,81.886z M82.953,81.886c-0.029,1.442-2.057,1.395-2.086,0.007   C80.959,80.521,82.865,80.547,82.953,81.886z M21.587,84.341c-0.028,1.442-2.056,1.395-2.085,0.006   C19.593,82.977,21.5,83.002,21.587,84.341z M26.496,84.341c-0.028,1.442-2.056,1.395-2.085,0.006   C24.503,82.977,26.409,83.002,26.496,84.341z M31.405,84.341c-0.028,1.442-2.056,1.395-2.084,0.006   C29.412,82.977,31.318,83.002,31.405,84.341z M36.314,84.341c-0.028,1.442-2.056,1.395-2.084,0.006   C34.321,82.977,36.228,83.002,36.314,84.341z M41.224,84.341c-0.028,1.442-2.056,1.395-2.084,0.006   C39.23,82.977,41.137,83.002,41.224,84.341z M75.588,84.341c-0.027,1.442-2.055,1.395-2.084,0.006   C73.596,82.977,75.502,83.002,75.588,84.341z M80.498,84.341c-0.028,1.442-2.056,1.395-2.085,0.006   C78.504,82.977,80.411,83.002,80.498,84.341z M19.132,86.795c-0.029,1.443-2.056,1.396-2.084,0.007   C17.139,85.432,19.045,85.457,19.132,86.795z M24.042,86.795c-0.028,1.443-2.056,1.396-2.085,0.007   C22.048,85.432,23.955,85.457,24.042,86.795z M28.951,86.795c-0.028,1.443-2.055,1.396-2.084,0.007   C26.958,85.432,28.864,85.457,28.951,86.795z M33.86,86.795c-0.028,1.443-2.056,1.396-2.085,0.007   C31.867,85.432,33.773,85.457,33.86,86.795z M38.77,86.795c-0.028,1.443-2.056,1.396-2.085,0.007   C36.776,85.432,38.683,85.457,38.77,86.795z M43.679,86.795c-0.028,1.443-2.056,1.396-2.085,0.007   C41.685,85.432,43.592,85.457,43.679,86.795z M73.134,86.795c-0.028,1.443-2.056,1.396-2.085,0.007   C71.141,85.432,73.047,85.457,73.134,86.795z M78.043,86.795c-0.027,1.443-2.056,1.396-2.084,0.007   C76.05,85.432,77.957,85.457,78.043,86.795z M82.953,86.795c-0.029,1.443-2.057,1.396-2.086,0.007   C80.959,85.432,82.865,85.457,82.953,86.795z M21.587,89.25c-0.028,1.442-2.056,1.395-2.085,0.007   C19.593,87.886,21.5,87.911,21.587,89.25z M26.496,89.25c-0.028,1.442-2.056,1.395-2.085,0.007   C24.503,87.886,26.409,87.911,26.496,89.25z M31.405,89.25c-0.028,1.442-2.056,1.395-2.084,0.007   C29.412,87.886,31.318,87.911,31.405,89.25z M36.314,89.25c-0.028,1.442-2.056,1.395-2.084,0.007   C34.321,87.886,36.228,87.911,36.314,89.25z M41.224,89.25c-0.028,1.442-2.056,1.395-2.084,0.007   C39.23,87.886,41.137,87.911,41.224,89.25z M46.133,89.25c-0.028,1.442-2.055,1.395-2.084,0.007   C44.14,87.886,46.046,87.911,46.133,89.25z M51.043,89.25c-0.029,1.442-2.056,1.395-2.085,0.007   C49.049,87.886,50.956,87.911,51.043,89.25z M70.68,89.25c-0.029,1.442-2.056,1.395-2.085,0.007   C68.686,87.886,70.592,87.911,70.68,89.25z M75.588,89.25c-0.027,1.442-2.055,1.395-2.084,0.007   C73.596,87.886,75.502,87.911,75.588,89.25z M80.498,89.25c-0.028,1.442-2.056,1.395-2.085,0.007   C78.504,87.886,80.411,87.911,80.498,89.25z M19.132,91.705c-0.029,1.442-2.056,1.395-2.084,0.006   C17.139,90.341,19.045,90.366,19.132,91.705z M24.042,91.705c-0.028,1.442-2.056,1.395-2.085,0.006   C22.048,90.341,23.955,90.366,24.042,91.705z M28.951,91.705c-0.028,1.442-2.055,1.395-2.084,0.006   C26.958,90.341,28.864,90.366,28.951,91.705z M33.86,91.705c-0.028,1.442-2.056,1.395-2.085,0.006   C31.867,90.341,33.773,90.366,33.86,91.705z M38.77,91.705c-0.028,1.442-2.056,1.395-2.085,0.006   C36.776,90.341,38.683,90.366,38.77,91.705z M43.679,91.705c-0.028,1.442-2.056,1.395-2.085,0.006   C41.685,90.341,43.592,90.366,43.679,91.705z M48.588,91.705c-0.028,1.442-2.056,1.395-2.085,0.006   C46.595,90.341,48.501,90.366,48.588,91.705z M53.497,91.705c-0.028,1.442-2.056,1.395-2.085,0.006   C51.504,90.341,53.41,90.366,53.497,91.705z M58.406,91.705c-0.028,1.442-2.056,1.395-2.085,0.006   C56.413,90.341,58.319,90.366,58.406,91.705z M63.315,91.705c-0.028,1.442-2.056,1.395-2.085,0.006   C61.322,90.341,63.229,90.366,63.315,91.705z M68.225,91.705c-0.028,1.442-2.055,1.395-2.084,0.006   C66.231,90.341,68.138,90.366,68.225,91.705z M73.134,91.705c-0.028,1.442-2.056,1.395-2.085,0.006   C71.141,90.341,73.047,90.366,73.134,91.705z M78.043,91.705c-0.027,1.442-2.056,1.395-2.084,0.006   C76.05,90.341,77.957,90.366,78.043,91.705z M82.953,91.705c-0.029,1.442-2.057,1.395-2.086,0.006   C80.959,90.341,82.865,90.366,82.953,91.705z"/></g></g><g id="SvgjsG7396" featureKey="nameFeature-0" transform="matrix(1.1216105215336607,0,0,1.1216105215336607,54.65406611731951,181.34823468625376)" fill="#000000"><path d="M5.28 31.52 q-0.04 0.24 -0.04 0.48 l0 0.44 q0 1.16 0.28 2.02 t0.72 1.42 t0.98 0.82 t1.1 0.26 q0.92 0 1.64 -0.7 t0.72 -1.98 q0 -1.24 -0.88 -2.94 t-3.12 -3.82 q-0.96 -0.92 -1.9 -1.88 t-1.68 -2.04 t-1.24 -2.34 t-0.62 -2.78 q0 -0.16 -0.02 -0.3 t-0.02 -0.3 q0 -1.56 0.56 -2.78 t1.46 -2.06 t2.06 -1.28 t2.36 -0.44 q1.24 0 2.44 0.48 t2.14 1.48 t1.52 2.54 t0.58 3.62 l0 0.5 t-0.04 0.54 l-3.8 0 q0.04 -0.28 0.04 -0.54 l0 -0.5 q0 -2.36 -0.9 -3.38 t-1.98 -1.02 q-1.04 0 -1.84 0.78 t-0.8 2.18 l0 0.24 q0.08 0.96 0.46 1.84 t0.98 1.68 t1.34 1.56 t1.54 1.48 q2.92 2.8 4.12 5.22 t1.2 4.38 q0 1.44 -0.56 2.6 t-1.48 1.98 t-2.1 1.24 t-2.42 0.42 t-2.44 -0.46 t-2.12 -1.44 t-1.5 -2.5 t-0.58 -3.64 l0 -0.54 t0.04 -0.54 l3.8 0 z M23.675 12 l0 12.08 l4.24 0 l0 -12.08 l3.8 0 l0 28 l-3.8 0 l0 -12.12 l-4.24 0 l0 12.12 l-3.76 0 l0 -28 l3.76 0 z M37.39000000000001 31.4 q-0.2 -1.28 -0.3 -2.6 t-0.1 -2.72 q0 -2.32 0.3 -4.62 t0.94 -4.34 q0.84 -2.64 2.28 -4.24 t3.56 -1.6 q1.36 0 2.44 0.72 t1.9 1.98 t1.4 2.94 t0.9 3.64 q0.2 1.28 0.32 2.7 t0.12 2.9 q0 2.36 -0.3 4.66 t-0.98 4.3 q-0.84 2.52 -2.3 4.06 t-3.5 1.54 q-0.12 0 -0.24 -0.02 t-0.24 -0.02 q-1.56 -0.16 -2.64 -1.16 t-1.8 -2.38 t-1.14 -2.92 t-0.62 -2.82 z M41.150000000000006 30.8 q0.16 1.16 0.42 2.2 t0.58 1.84 t0.7 1.32 t0.82 0.68 q0.24 0.08 0.36 0.08 q0.44 0 0.8 -0.36 t0.64 -0.84 t0.48 -0.98 t0.32 -0.82 q0.56 -1.68 0.82 -3.68 t0.26 -4.04 q0 -1.32 -0.1 -2.6 t-0.3 -2.44 q-0.2 -1.28 -0.5 -2.38 t-0.66 -1.92 t-0.8 -1.3 t-0.92 -0.48 q-0.64 0 -1.2 0.9 t-1 2.3 q-0.56 1.72 -0.82 3.74 t-0.26 4.06 q0 2.56 0.36 4.72 z M56.425000000000004 40 l0 -28 l6.52 0 q1.36 0 2.54 0.52 t2.08 1.4 t1.42 2.08 t0.52 2.56 l0 4.36 q0 1.36 -0.52 2.54 t-1.42 2.06 t-2.08 1.4 t-2.54 0.52 l-2.76 0 l0 10.56 l-3.76 0 z M60.185 15.8 l0 9.88 l2.76 0 q1.16 0 1.96 -0.82 t0.8 -1.94 l0 -4.36 q0 -1.16 -0.8 -1.96 t-1.96 -0.8 l-2.76 0 z M75.18 40 l0 -28 l6.52 0 q1.36 0 2.54 0.52 t2.08 1.4 t1.42 2.08 t0.52 2.56 l0 4.36 q0 1.36 -0.52 2.54 t-1.42 2.06 t-2.08 1.4 t-2.54 0.52 l-2.76 0 l0 10.56 l-3.76 0 z M78.94000000000001 15.8 l0 9.88 l2.76 0 q1.16 0 1.96 -0.82 t0.8 -1.94 l0 -4.36 q0 -1.16 -0.8 -1.96 t-1.96 -0.8 l-2.76 0 z M97.495 12 l3.32 9.2 l3.32 -9.2 l4 0 l-5.4 15.08 l0 12.92 l-3.8 0 l0 -12.92 l-5.4 -15.08 l3.96 0 z M117.17 12 l0 24.2 l6.12 0 l0 3.8 l-9.88 0 l0 -28 l3.76 0 z M133.965 12 l3.72 0 l6.6 28 l-3.88 0 l-2.32 -9.76 l-4.52 0 l-2.32 9.76 l-3.88 0 z M137.205 26.439999999999998 l-1.4 -5.8 l-1.36 5.8 l2.76 0 z M148.36 40 l0 -28 l3.64 0 l5.6 16.08 l0 -16.08 l3.76 0 l0 28 l-3.6 0 l-5.64 -16.16 l0 16.16 l-3.76 0 z M173.59500000000003 12 q1.24 0 2.32 0.46 t1.88 1.28 t1.26 1.9 t0.46 2.28 l0 16.12 q0 1.24 -0.46 2.32 t-1.26 1.9 t-1.88 1.28 t-2.32 0.46 l-6.56 0 l0 -28 l6.56 0 z M173.59500000000003 15.8 l-2.76 0 l0 20.4 l2.76 0 q0.88 0 1.5 -0.62 t0.62 -1.54 l0 -16.12 q0 -0.88 -0.62 -1.5 t-1.5 -0.62 z"/></g>
			</g>
		</svg>
	