
        <svg xmlns="http://www.w3.org/2000/svg" xmlns:xlink="http://www.w3.org/1999/xlink" version="1.1" width="3168.5393258426966" height="1011.2359550561798" viewBox="0 0 3168.5393258426966 1011.2359550561798">
			
			<g transform="scale(8.426966292134832) translate(10, 10)">
				<defs id="SvgjsDefs4095"/><g id="SvgjsG4096" featureKey="symbolFeature-0" transform="matrix(1.9607843137254901,0,0,1.9607843137254901,-10.784313725490195,-10.784313725490195)" fill="#fff"><g xmlns="http://www.w3.org/2000/svg"><g><path d="M50.109,31.501C50.369,30.322,50.5,29.147,50.5,28c0-9.098-7.402-16.5-16.5-16.5c-7.514,0-13.991,4.999-15.921,12.217    C17.376,23.573,16.679,23.5,16,23.5c-5.79,0-10.5,4.71-10.5,10.5c0,5.79,4.71,10.5,10.5,10.5h34c3.584,0,6.5-2.916,6.5-6.5    C56.5,34.452,53.643,31.56,50.109,31.501z M50,43.5H16c-5.238,0-9.5-4.262-9.5-9.5s4.262-9.5,9.5-9.5    c0.754,0,1.535,0.101,2.322,0.298c0.128,0.032,0.267,0.012,0.382-0.058c0.114-0.069,0.196-0.182,0.227-0.312    C20.59,17.405,26.787,12.5,34,12.5c8.547,0,15.5,6.953,15.5,15.5c0,1.273-0.173,2.586-0.516,3.901    c-0.04,0.158-0.002,0.325,0.103,0.449c0.105,0.124,0.261,0.191,0.426,0.175C49.674,32.511,49.835,32.5,50,32.5    c3.032,0,5.5,2.468,5.5,5.5S53.032,43.5,50,43.5z"/><path d="M13.155,22.333c0.099,0.11,0.235,0.167,0.373,0.167c0.119,0,0.238-0.042,0.333-0.127c0.206-0.184,0.223-0.5,0.039-0.706    c-0.481-0.538-0.847-1.154-1.086-1.83C12.605,19.248,12.5,18.63,12.5,18c0-3.033,2.467-5.5,5.5-5.5    c1.562,0,3.056,0.668,4.099,1.833c0.185,0.206,0.501,0.223,0.706,0.039c0.206-0.185,0.223-0.5,0.039-0.706    C21.611,12.289,19.846,11.5,18,11.5c-3.584,0-6.5,2.916-6.5,6.5c0,0.745,0.125,1.475,0.372,2.169    C12.154,20.969,12.586,21.696,13.155,22.333z"/><path d="M18,8.5c0.276,0,0.5-0.224,0.5-0.5V6c0-0.276-0.224-0.5-0.5-0.5S17.5,5.724,17.5,6v2C17.5,8.276,17.724,8.5,18,8.5z"/><path d="M6,18.5h2c0.276,0,0.5-0.224,0.5-0.5S8.276,17.5,8,17.5H6c-0.276,0-0.5,0.224-0.5,0.5S5.724,18.5,6,18.5z"/><path d="M24.586,10.943c0.128,0,0.256-0.049,0.354-0.146l1.414-1.414c0.195-0.195,0.195-0.512,0-0.707s-0.512-0.195-0.707,0    l-1.414,1.414c-0.195,0.195-0.195,0.512,0,0.707C24.33,10.895,24.458,10.943,24.586,10.943z"/><path d="M10.09,10.797c0.098,0.098,0.226,0.146,0.354,0.146s0.256-0.049,0.354-0.146c0.195-0.195,0.195-0.512,0-0.707L9.383,8.676    c-0.195-0.195-0.512-0.195-0.707,0s-0.195,0.512,0,0.707L10.09,10.797z"/><path d="M36.354,47.646c-0.195-0.195-0.512-0.195-0.707,0l-2,2c-0.195,0.195-0.195,0.512,0,0.707    C33.744,50.451,33.872,50.5,34,50.5s0.256-0.049,0.354-0.146l2-2C36.549,48.158,36.549,47.842,36.354,47.646z"/><path d="M43.646,47.646l-2,2c-0.195,0.195-0.195,0.512,0,0.707C41.744,50.451,41.872,50.5,42,50.5s0.256-0.049,0.354-0.146l2-2    c0.195-0.195,0.195-0.512,0-0.707S43.842,47.451,43.646,47.646z"/><path d="M28.354,47.646c-0.195-0.195-0.512-0.195-0.707,0l-2,2c-0.195,0.195-0.195,0.512,0,0.707    C25.744,50.451,25.872,50.5,26,50.5s0.256-0.049,0.354-0.146l2-2C28.549,48.158,28.549,47.842,28.354,47.646z"/><path d="M29.646,53.646l-2,2c-0.195,0.195-0.195,0.512,0,0.707C27.744,56.451,27.872,56.5,28,56.5s0.256-0.049,0.354-0.146l2-2    c0.195-0.195,0.195-0.512,0-0.707S29.842,53.451,29.646,53.646z"/><path d="M37.646,53.646l-2,2c-0.195,0.195-0.195,0.512,0,0.707C35.744,56.451,35.872,56.5,36,56.5s0.256-0.049,0.354-0.146l2-2    c0.195-0.195,0.195-0.512,0-0.707S37.842,53.451,37.646,53.646z"/><path d="M21.646,53.646l-2,2c-0.195,0.195-0.195,0.512,0,0.707C19.744,56.451,19.872,56.5,20,56.5s0.256-0.049,0.354-0.146l2-2    c0.195-0.195,0.195-0.512,0-0.707S21.842,53.451,21.646,53.646z"/></g></g></g><g id="SvgjsG4097" featureKey="textGroupContainer" transform="matrix(1,0,0,1,355,30)" fill="#fff"><rect xmlns="http://www.w3.org/2000/svg" y="0" height="1" width="1" opacity="0"/><rect xmlns="http://www.w3.org/2000/svg" y="0" x="-235" width="3" height="40"/></g><g id="SvgjsG4098" featureKey="vMvB0T-0" transform="matrix(1.4295926284884986,0,0,1.4295926284884986,137.42816281226803,31.422446274117668)" fill="#fff"><path d="M5.1 17.8 l3 -9.6 l1.9 0 l3 9.6 l0.1 0 l3.1 -11.8 l1.5 0 l0 0.6 l-3.6 13.4 l-1.9 0 l-3.1 -9.8 l-0.1 0 l-3.1 9.8 l-1.9 0 l-3.6 -13.4 l0 -0.6 l1.5 0 l3.1 11.8 l0.1 0 z M20.1 20 l0 -14 l9.1 0 l0 0.9 l-0.4 0.4 l-7.2 0 l0 4.9 l5.7 0 l0 1.3 l-5.7 0 l0 5.2 l7.6 0 l0 1.3 l-9.1 0 z M32.800000000000004 16.4 l-1.2 3.6 l-1.5 0 l0 -0.6 l4.9 -13.4 l1.7 0 l4.9 13.4 l0 0.6 l-1.5 0 l-1.2 -3.6 l-6.1 0 z M38.400000000000006 15.1 l-2.5 -7.3 l-0.1 0 l-2.5 7.3 l5.1 0 z M48.00000000000001 7.300000000000001 l0 12.7 l-1.5 0 l0 -12.7 l-4.4 0 l0 -1.3 l10.3 0 l0 0.9 l-0.4 0.4 l-4 0 z M63.00000000000001 6 l1.5 0 l0 14 l-1.5 0 l0 -6.5 l-6.9 0 l0 6.5 l-1.5 0 l0 -14 l1.5 0 l0 6.2 l6.9 0 l0 -6.2 z M68.50000000000001 20 l0 -14 l9.1 0 l0 0.9 l-0.4 0.4 l-7.2 0 l0 4.9 l5.7 0 l0 1.3 l-5.7 0 l0 5.2 l7.6 0 l0 1.3 l-9.1 0 z M81.70000000000002 20 l-1.5 0 l0 -14 l6.2 0 c2.1 0 3.5 1.4 3.5 3.3 l0 1.9 c0 2.8 -2.7 3.2 -2.7 3.2 l3.1 5 l0 0.6 l-1.5 0 l-3.1 -5.5 l-4 0 l0 5.5 z M86.40000000000002 7.300000000000001 l-4.7 0 l0 5.9 l4.7 0 c1.1 0 2 -0.9 2 -2 l0 -1.9 c0 -1.1 -0.9 -2 -2 -2 z M93.30000000000001 6 l1.5 0 l0 12.7 l7.5 0 l0 1.3 l-9 0 l0 -14 z M105.50000000000001 16.4 l-1.2 3.6 l-1.5 0 l0 -0.6 l4.9 -13.4 l1.7 0 l4.9 13.4 l0 0.6 l-1.5 0 l-1.2 -3.6 l-6.1 0 z M111.10000000000001 15.1 l-2.5 -7.3 l-0.1 0 l-2.5 7.3 l5.1 0 z M124.80000000000001 20 l-6.8 -11.5 l-0.1 0 l0.2 2.6 l0 8.9 l-1.5 0 l0 -14 l1.6 0 l6.8 11.5 l0.1 0 l-0.2 -2.6 l0 -8.9 l1.5 0 l0 14 l-1.6 0 z M130.4 20 l0 -14 l6.4 0 c2.1 0 3.5 1.4 3.5 3.3 l0 7.4 c0 1.9 -1.4 3.3 -3.5 3.3 l-6.4 0 z M131.9 7.300000000000001 l0 11.4 l4.9 0 c1.1 0 2 -0.9 2 -2 l0 -7.4 c0 -1.1 -0.9 -2 -2 -2 l-4.9 0 z"/></g>
			</g>
		</svg>
	